<?xml version="1.0" encoding="UTF-8" standalone="no"?><svg xmlns="http://www.w3.org/2000/svg" xmlns:xlink="http://www.w3.org/1999/xlink" contentScriptType="application/ecmascript" contentStyleType="text/css" height="284px" preserveAspectRatio="none" style="width:290px;height:284px;" version="1.1" viewBox="0 0 290 284" width="290px" zoomAndPan="magnify"><defs><filter height="300%" id="fzm6znv7b4xpu" width="300%" x="-1" y="-1"><feGaussianBlur result="blurOut" stdDeviation="2.0"/><feColorMatrix in="blurOut" result="blurOut2" type="matrix" values="0 0 0 0 0 0 0 0 0 0 0 0 0 0 0 0 0 0 .4 0"/><feOffset dx="4.0" dy="4.0" in="blurOut2" result="blurOut3"/><feBlend in="SourceGraphic" in2="blurOut3" mode="normal"/></filter></defs><g><rect fill="#FFFFFF" filter="url(#fzm6znv7b4xpu)" height="177" style="stroke: #000000; stroke-width: 1.5;" width="154" x="111.5" y="96"/><rect fill="#FFFFFF" filter="url(#fzm6znv7b4xpu)" height="54" style="stroke: #000000; stroke-width: 1.5;" width="181" x="98" y="23"/><ellipse cx="188.5685" cy="119.0236" fill="#FEFECE" filter="url(#fzm6znv7b4xpu)" rx="59.5685" ry="14.5236" style="stroke: #A80036; stroke-width: 1.5;"/><text fill="#000000" font-family="sans-serif" font-size="14" lengthAdjust="spacingAndGlyphs" textLength="80" x="148.5685" y="123.6721">新規の会議を予約する</text><ellipse cx="188.5685" cy="183.0236" fill="#FEFECE" filter="url(#fzm6znv7b4xpu)" rx="59.5685" ry="14.5236" style="stroke: #A80036; stroke-width: 1.5;"/><text fill="#000000" font-family="sans-serif" font-size="14" lengthAdjust="spacingAndGlyphs" textLength="80" x="148.5685" y="187.6721">会議をキャンセルする</text><ellipse cx="188.56" cy="249.212" fill="#FEFECE" filter="url(#fzm6znv7b4xpu)" rx="69.06" ry="16.212" style="stroke: #A80036; stroke-width: 1.5;"/><text fill="#000000" font-family="sans-serif" font-size="14" lengthAdjust="spacingAndGlyphs" textLength="104" x="136.56" y="253.8604">会議室の使用時間を延長する</text><ellipse cx="188.2712" cy="49.8542" fill="#FEFECE" filter="url(#fzm6znv7b4xpu)" rx="82.2712" ry="18.8542" style="stroke: #A80036; stroke-width: 1.5;"/><text fill="#000000" font-family="sans-serif" font-size="14" lengthAdjust="spacingAndGlyphs" textLength="136" x="120.2712" y="54.5027">何かの仮説をもって、何かを集計する</text><!--entity a1--><ellipse cx="26" cy="151.5" fill="#FEFECE" filter="url(#fzm6znv7b4xpu)" rx="8" ry="8" style="stroke: #A80036; stroke-width: 2.0;"/><path d="M26,159.5 L26,186.5 M13,167.5 L39,167.5 M26,186.5 L13,201.5 M26,186.5 L39,201.5 " fill="none" filter="url(#fzm6znv7b4xpu)" style="stroke: #A80036; stroke-width: 2.0;"/><text fill="#000000" font-family="sans-serif" font-size="14" lengthAdjust="spacingAndGlyphs" textLength="24" x="14" y="221.4951">予約者</text><!--entity a2--><ellipse cx="26" cy="18.5" fill="#FEFECE" filter="url(#fzm6znv7b4xpu)" rx="8" ry="8" style="stroke: #A80036; stroke-width: 2.0;"/><path d="M26,26.5 L26,53.5 M13,34.5 L39,34.5 M26,53.5 L13,68.5 M26,53.5 L39,68.5 " fill="none" filter="url(#fzm6znv7b4xpu)" style="stroke: #A80036; stroke-width: 2.0;"/><text fill="#000000" font-family="sans-serif" font-size="14" lengthAdjust="spacingAndGlyphs" textLength="40" x="6" y="88.4951">分析する人</text><!--link a1 to 新規の会議を予約する--><path d="M41.0236,175.9099 C55.4885,169.1821 78.0484,158.9469 98,151 C114.2756,144.5173 132.4452,137.9626 148.2086,132.4883 " fill="none" id="a1-新規の会議を予約する" style="stroke: #A80036; stroke-width: 1.0;"/><polygon fill="#A80036" points="153.0187,130.8253,143.2057,129.9855,148.2931,132.459,145.8196,137.5464,153.0187,130.8253" style="stroke: #A80036; stroke-width: 1.0;"/><!--link a1 to 会議をキャンセルする--><path d="M41.2876,183 C60.1835,183 93.5477,183 123.7404,183 " fill="none" id="a1-会議をキャンセルする" style="stroke: #A80036; stroke-width: 1.0;"/><polygon fill="#A80036" points="128.9452,183,119.9452,179,123.9452,183,119.9452,187,128.9452,183" style="stroke: #A80036; stroke-width: 1.0;"/><!--link a1 to 会議室の使用時間を延長する--><path d="M41.0588,190.003 C55.5492,196.6677 78.1269,206.8589 98,215 C113.4889,221.3451 130.6439,227.9063 145.8165,233.5523 " fill="none" id="a1-会議室の使用時間を延長する" style="stroke: #A80036; stroke-width: 1.0;"/><polygon fill="#A80036" points="150.8808,235.4303,143.8332,228.5505,146.1928,233.6918,141.0515,236.0514,150.8808,235.4303" style="stroke: #A80036; stroke-width: 1.0;"/><!--link a2 to 何かの仮説をもって、何かを集計する--><path d="M46.2522,50 C60.3701,50 80.2785,50 100.7409,50 " fill="none" id="a2-何かの仮説をもって、何かを集計する" style="stroke: #A80036; stroke-width: 1.0;"/><polygon fill="#A80036" points="105.952,50,96.952,46,100.952,50,96.952,54,105.952,50" style="stroke: #A80036; stroke-width: 1.0;"/><!--
@startuml
left to right direction

actor 予約者 as a1
actor 分析する人 as a2

rectangle {
    a1 - -> (新規の会議を予約する)
    a1 - -> (会議をキャンセルする)
    a1 - -> (会議室の使用時間を延長する)
}

rectangle {
    a2 - -> (何かの仮説をもって、何かを集計する)
}

@enduml

PlantUML version 1.2018.13(Mon Nov 26 17:11:51 UTC 2018)
(GPL source distribution)
Java Runtime: OpenJDK Runtime Environment
JVM: OpenJDK 64-Bit Server VM
Java Version: 11.0.6+10-post-Debian-1deb10u1
Operating System: Linux
OS Version: 5.0.0-1035-azure
Default Encoding: UTF-8
Language: en
Country: null
--></g></svg>