<?xml version="1.0" encoding="UTF-8" standalone="no"?><svg xmlns="http://www.w3.org/2000/svg" xmlns:xlink="http://www.w3.org/1999/xlink" contentScriptType="application/ecmascript" contentStyleType="text/css" height="298px" preserveAspectRatio="none" style="width:374px;height:298px;" version="1.1" viewBox="0 0 374 298" width="374px" zoomAndPan="magnify"><defs><filter height="300%" id="fz2v3jsd2wx9g" width="300%" x="-1" y="-1"><feGaussianBlur result="blurOut" stdDeviation="2.0"/><feColorMatrix in="blurOut" result="blurOut2" type="matrix" values="0 0 0 0 0 0 0 0 0 0 0 0 0 0 0 0 0 0 .4 0"/><feOffset dx="4.0" dy="4.0" in="blurOut2" result="blurOut3"/><feBlend in="SourceGraphic" in2="blurOut3" mode="normal"/></filter></defs><g><text fill="#000000" font-family="sans-serif" font-size="18" lengthAdjust="spacingAndGlyphs" textLength="55" x="163" y="16.708">情報モデル</text><rect fill="#FEFECE" filter="url(#fz2v3jsd2wx9g)" height="37.6094" style="stroke: #A80036; stroke-width: 1.5;" width="62" x="301" y="37.9531"/><text fill="#000000" font-family="sans-serif" font-size="12" lengthAdjust="spacingAndGlyphs" textLength="21" x="321.5" y="51.0918">会議室</text><line style="stroke: #A80036; stroke-width: 1.5;" x1="302" x2="362" y1="55.9219" y2="55.9219"/><rect fill="none" height="6" style="stroke: #C82930; stroke-width: 1.0;" width="6" x="309" y="64.2422"/><text fill="#000000" font-family="sans-serif" font-size="10" lengthAdjust="spacingAndGlyphs" textLength="36" x="321" y="69.2041">想定使用人数</text><rect fill="#FEFECE" filter="url(#fz2v3jsd2wx9g)" height="33.9688" style="stroke: #A80036; stroke-width: 1.5;" width="35" x="314.5" y="110.9531"/><text fill="#000000" font-family="sans-serif" font-size="12" lengthAdjust="spacingAndGlyphs" textLength="21" x="321.5" y="124.0918">予約者</text><line style="stroke: #A80036; stroke-width: 1.5;" x1="315.5" x2="348.5" y1="128.9219" y2="128.9219"/><rect fill="#FEFECE" filter="url(#fz2v3jsd2wx9g)" height="33.9688" style="stroke: #A80036; stroke-width: 1.5;" width="42" x="311" y="179.9531"/><text fill="#000000" font-family="sans-serif" font-size="12" lengthAdjust="spacingAndGlyphs" textLength="28" x="318" y="193.0918">使用人数</text><line style="stroke: #A80036; stroke-width: 1.5;" x1="312" x2="352" y1="197.9219" y2="197.9219"/><rect fill="#FEFECE" filter="url(#fz2v3jsd2wx9g)" height="33.9688" style="stroke: #A80036; stroke-width: 1.5;" width="28" x="160.5" y="147.9531"/><text fill="#000000" font-family="sans-serif" font-size="12" lengthAdjust="spacingAndGlyphs" textLength="14" x="167.5" y="161.0918">予約</text><line style="stroke: #A80036; stroke-width: 1.5;" x1="161.5" x2="187.5" y1="165.9219" y2="165.9219"/><rect fill="#FEFECE" filter="url(#fz2v3jsd2wx9g)" height="33.9688" style="stroke: #A80036; stroke-width: 1.5;" width="49" x="307.5" y="248.9531"/><text fill="#000000" font-family="sans-serif" font-size="12" lengthAdjust="spacingAndGlyphs" textLength="35" x="314.5" y="262.0918">使用時間帯</text><line style="stroke: #A80036; stroke-width: 1.5;" x1="308.5" x2="355.5" y1="266.9219" y2="266.9219"/><rect fill="#FEFECE" filter="url(#fz2v3jsd2wx9g)" height="33.9688" style="stroke: #A80036; stroke-width: 1.5;" width="42" x="6" y="147.9531"/><text fill="#000000" font-family="sans-serif" font-size="12" lengthAdjust="spacingAndGlyphs" textLength="28" x="13" y="161.0918">予約台帳</text><line style="stroke: #A80036; stroke-width: 1.5;" x1="7" x2="47" y1="165.9219" y2="165.9219"/><path d="M112,29.4531 L112,84.8516 A0,0 0 0 0 112,84.8516 L237,84.8516 A0,0 0 0 0 237,84.8516 L237,60.9531 L300.6432,56.9531 L237,52.9531 L237,39.4531 L227,29.4531 L112,29.4531 A0,0 0 0 0 112,29.4531 " fill="#FBFB77" filter="url(#fz2v3jsd2wx9g)" style="stroke: #A80036; stroke-width: 1.0;"/><path d="M227,29.4531 L227,39.4531 L237,39.4531 L227,29.4531 " fill="#FBFB77" style="stroke: #A80036; stroke-width: 1.0;"/><text fill="#000000" font-family="sans-serif" font-size="13" lengthAdjust="spacingAndGlyphs" textLength="72" x="118" y="46.52">3分の1くらいしか</text><text fill="#000000" font-family="sans-serif" font-size="13" lengthAdjust="spacingAndGlyphs" textLength="104" x="118" y="61.6528">しばらく使ってなかったら、</text><text fill="#000000" font-family="sans-serif" font-size="13" lengthAdjust="spacingAndGlyphs" textLength="48" x="118" y="76.7856">分割をしたい</text><path d="M108,245.9531 L108,286.2188 A0,0 0 0 0 108,286.2188 L241,286.2188 A0,0 0 0 0 241,286.2188 L241,269.9531 L307.4663,265.9531 L241,261.9531 L241,255.9531 L231,245.9531 L108,245.9531 A0,0 0 0 0 108,245.9531 " fill="#FBFB77" filter="url(#fz2v3jsd2wx9g)" style="stroke: #A80036; stroke-width: 1.0;"/><path d="M231,245.9531 L231,255.9531 L241,255.9531 L231,245.9531 " fill="#FBFB77" style="stroke: #A80036; stroke-width: 1.0;"/><text fill="#000000" font-family="sans-serif" font-size="13" lengthAdjust="spacingAndGlyphs" textLength="112" x="114" y="263.02">何時から何時まで使用するかを</text><text fill="#000000" font-family="sans-serif" font-size="13" lengthAdjust="spacingAndGlyphs" textLength="16" x="114" y="278.1528">表す</text><!--link 予約 to 会議室--><path d="M199.8126,147.5959 C228.3877,128.0015 274.7317,96.2228 304.2669,75.9701 " fill="none" id="予約-会議室" style="stroke: #A80036; stroke-width: 1.0;"/><polygon fill="#A80036" points="188.7549,155.1783,195.9654,155.0841,198.6517,148.392,191.4412,148.4863,188.7549,155.1783" style="stroke: #A80036; stroke-width: 1.0;"/><!--link 予約 to 予約者--><path d="M201.5378,158.6014 C233.7243,151.0401 286.569,138.6258 314.0837,132.162 " fill="none" id="予約-予約者" style="stroke: #A80036; stroke-width: 1.0;"/><polygon fill="#A80036" points="188.7549,161.6043,195.5107,164.1262,200.4369,158.86,193.6811,156.3382,188.7549,161.6043" style="stroke: #A80036; stroke-width: 1.0;"/><!--link 予約 to 使用人数--><path d="M201.5059,170.44 C232.5231,176.7419 282.755,186.9478 310.9936,192.6851 " fill="none" id="予約-使用人数" style="stroke: #A80036; stroke-width: 1.0;"/><polygon fill="#A80036" points="188.7549,167.8493,193.8383,172.9639,200.5146,170.2386,195.4312,165.1241,188.7549,167.8493" style="stroke: #A80036; stroke-width: 1.0;"/><!--link 予約 to 使用時間帯--><path d="M199.8093,181.1832 C229.4283,200.177 278.1416,231.4154 307.4359,250.2009 " fill="none" id="予約-使用時間帯" style="stroke: #A80036; stroke-width: 1.0;"/><polygon fill="#A80036" points="188.7549,174.0943,191.6463,180.7004,198.8563,180.5721,195.9649,173.9661,188.7549,174.0943" style="stroke: #A80036; stroke-width: 1.0;"/><!--link 予約台帳 to 予約--><path d="M48.1332,164.9531 C78.722,164.9531 134.5089,164.9531 160.4906,164.9531 " fill="none" id="予約台帳-予約" style="stroke: #A80036; stroke-width: 1.0;"/><!--
@startuml

title 情報モデル

left to right direction

object 会議室{
 - 想定使用人数
}
object 予約者
object 使用人数
object 予約
object 使用時間帯
object 予約台帳


予約 *- - 会議室
予約 *- - 予約者
予約 *- - 使用人数
予約 *- - 使用時間帯

予約台帳 - - 予約


note left of 会議室
3分の1くらいしか
しばらく使ってなかったら、
分割をしたい
end note

note left of 使用時間帯
何時から何時まで使用するかを
表す
end note




@enduml

PlantUML version 1.2018.13(Mon Nov 26 17:11:51 UTC 2018)
(GPL source distribution)
Java Runtime: OpenJDK Runtime Environment
JVM: OpenJDK 64-Bit Server VM
Java Version: 11.0.6+10-post-Debian-1deb10u1
Operating System: Linux
OS Version: 5.0.0-1035-azure
Default Encoding: UTF-8
Language: en
Country: null
--></g></svg>